HIERARCHY
ROOT Hips
{
	OFFSET 0.000000 0.000000 0.000000
	CHANNELS 6 Xposition Yposition Zposition Zrotation Yrotation Xrotation 
	JOINT LHipJoint
	{
		OFFSET 0.000000 0.000000 0.000000
		CHANNELS 3 Zrotation Yrotation Xrotation
		JOINT LeftUpLeg
		{
			OFFSET 1.363060 -1.794630 0.839290
			CHANNELS 3 Zrotation Yrotation Xrotation
			JOINT LeftLeg
			{
				OFFSET 2.448110 -6.726130 0.000000
				CHANNELS 3 Zrotation Yrotation Xrotation
				JOINT LeftFoot
				{
					OFFSET 2.562200 -7.039590 0.000000
					CHANNELS 3 Zrotation Yrotation Xrotation
					JOINT LeftToeBase
					{
						OFFSET 0.157640 -0.433110 2.322550
						CHANNELS 3 Zrotation Yrotation Xrotation
						End Site
						{
							OFFSET 0.000000 0.000000 0.000000
						}
					}
				}
			}
		}
	}
	JOINT RHipJoint
	{
		OFFSET 0.000000 0.000000 0.000000
		CHANNELS 3 Zrotation Yrotation Xrotation
		JOINT RightUpLeg
		{
			OFFSET -1.305520 -1.794630 0.839290
			CHANNELS 3 Zrotation Yrotation Xrotation
			JOINT RightLeg
			{
				OFFSET -2.542530 -6.985550 0.000000
				CHANNELS 3 Zrotation Yrotation Xrotation
				JOINT RightFoot
				{
					OFFSET -2.568260 -7.056230 0.000000
					CHANNELS 3 Zrotation Yrotation Xrotation
					JOINT RightToeBase
					{
						OFFSET -0.164730 -0.452590 2.363150
						CHANNELS 3 Zrotation Yrotation Xrotation
						End Site
						{
							OFFSET 0.000000 0.000000 0.000000
						}
					}
				}
			}
		}
	}
	JOINT LowerBack
	{
		OFFSET 0.000000 0.000000 0.000000
		CHANNELS 3 Zrotation Yrotation Xrotation
		JOINT Spine
		{
			OFFSET 0.028270 2.035590 -0.193380
			CHANNELS 3 Zrotation Yrotation Xrotation
			JOINT Spine1
			{
				OFFSET 0.056720 2.048850 -0.042750
				CHANNELS 3 Zrotation Yrotation Xrotation
				JOINT Neck
				{
					OFFSET 0.000000 0.000000 0.000000
					CHANNELS 3 Zrotation Yrotation Xrotation
					JOINT Neck1
					{
						OFFSET -0.054170 1.746240 0.172020
						CHANNELS 3 Zrotation Yrotation Xrotation
						JOINT Head
						{
							OFFSET 0.104070 1.761360 -0.123970
							CHANNELS 3 Zrotation Yrotation Xrotation
							End Site
							{
								OFFSET 0.000000 0.000000 0.000000
							}
						}
					}
				}
				JOINT LeftShoulder
				{
					OFFSET 0.000000 0.000000 0.000000
					CHANNELS 3 Zrotation Yrotation Xrotation
					JOINT LeftArm
					{
						OFFSET 3.362410 1.200890 -0.311210
						CHANNELS 3 Zrotation Yrotation Xrotation
						JOINT LeftForeArm
						{
							OFFSET 4.983000 -0.000000 -0.000000
							CHANNELS 3 Zrotation Yrotation Xrotation
							JOINT LeftHand
							{
								OFFSET 3.483560 -0.000000 -0.000000
								CHANNELS 3 Zrotation Yrotation Xrotation
								JOINT LeftFingerBase
								{
									OFFSET 0.000000 0.000000 0.000000
									CHANNELS 3 Zrotation Yrotation Xrotation
									JOINT LeftHandIndex1
									{
										OFFSET 0.715260 -0.000000 -0.000000
										CHANNELS 3 Zrotation Yrotation Xrotation
										End Site
										{
											OFFSET 0.000000 0.000000 0.000000
										}
									}
								}
								JOINT LThumb
								{
									OFFSET 0.000000 0.000000 0.000000
									CHANNELS 3 Zrotation Yrotation Xrotation
									End Site
									{
										OFFSET 0.000000 0.000000 0.000000
									}
								}
							}
						}
					}
				}
				JOINT RightShoulder
				{
					OFFSET 0.000000 0.000000 0.000000
					CHANNELS 3 Zrotation Yrotation Xrotation
					JOINT RightArm
					{
						OFFSET -3.136600 1.374050 -0.404650
						CHANNELS 3 Zrotation Yrotation Xrotation
						JOINT RightForeArm
						{
							OFFSET -5.241900 -0.000000 -0.000000
							CHANNELS 3 Zrotation Yrotation Xrotation
							JOINT RightHand
							{
								OFFSET -3.444170 -0.000000 -0.000000
								CHANNELS 3 Zrotation Yrotation Xrotation
								JOINT RightFingerBase
								{
									OFFSET 0.000000 0.000000 0.000000
									CHANNELS 3 Zrotation Yrotation Xrotation
									JOINT RightHandIndex1
									{
										OFFSET -0.622530 -0.000000 -0.000000
										CHANNELS 3 Zrotation Yrotation Xrotation
										End Site
										{
											OFFSET 0.000000 0.000000 0.000000
										}
									}
								}
								JOINT RThumb
								{
									OFFSET 0.000000 0.000000 0.000000
									CHANNELS 3 Zrotation Yrotation Xrotation
									End Site
									{
										OFFSET 0.000000 0.000000 0.000000
									}
								}
							}
						}
					}
				}
			}
		}
	}
}
MOTION
Frames: 11
Frame Time: 0.008333
0.172157 17.804601 -22.617008 -0.301793 -0.351785 2.870638 -4.885538 -1.023894 1.375786 -13.883862 0.077272 -11.351950 0.845314 9.558224 26.737100 1.234339 -1.848231 -7.650273 1.466300 -7.652500 -21.663600 4.277528 2.188078 -0.139373 16.957901 0.703033 -10.888449 -2.333580 -11.075531 30.104553 -0.061922 -3.255364 -12.277142 -1.539700 -7.833100 22.208300 -0.892050 -2.017060 5.897283 0.753676 -2.487317 -3.527170 3.349539 -1.588971 -4.371030 -11.442265 -8.458098 -4.774811 7.737434 -10.847510 8.480538 2.093700 -5.392500 5.287700 2.775646 5.068494 -0.847899 -96.045892 15.996952 15.690400 18.865801 -37.347296 -6.381064 -0.345214 0.647398 5.308257 -4.505937 -9.665039 0.733800 -7.125000 0.000000 0.000000 -21.704900 19.935900 14.035600 -1.872912 -5.444910 -0.684340 87.846369 -1.673349 10.934031 -3.669699 17.968325 -0.516361 -1.246598 -0.935558 16.881581 -8.741840 -36.154019 4.497600 7.125000 0.000000 0.000000 30.748600 -62.573700 -13.812900 
0.176001 17.803792 -22.616907 -0.149323 -0.438607 2.913330 -4.889689 -1.028010 1.371309 -14.072479 0.086399 -11.359660 0.821070 9.534033 26.663494 1.075752 -1.311259 -7.335128 1.980600 -8.825600 -25.251100 4.278353 2.187550 -0.141652 16.775223 0.796697 -10.953996 -2.348158 -11.097686 30.186204 -0.049104 -3.314807 -12.304640 -1.510400 -7.761700 21.992700 -1.059698 -2.067128 5.898851 0.741746 -2.567490 -3.524501 3.438773 -1.626600 -4.343709 -11.245540 -8.376523 -5.001778 7.409039 -10.712329 8.764673 1.960500 -5.327800 5.382800 2.782637 5.070425 -0.838745 -96.262162 15.942516 15.036727 18.753318 -37.227549 -6.350664 -0.343773 0.681907 5.496614 -2.041094 -10.344050 0.311600 -7.125000 0.000000 0.000000 -19.970300 19.269800 13.074100 -1.870436 -5.449597 -0.692667 87.844274 -1.567720 11.437454 -3.911335 18.411918 -0.578100 -1.217308 -0.985166 16.102238 -8.278963 -36.354898 4.261000 7.125000 0.000000 0.000000 31.383500 -62.602300 -14.149400 
0.181665 17.805006 -22.615289 -0.059957 -0.594421 2.961119 -4.886247 -1.029987 1.363737 -14.210700 0.120110 -11.383800 0.799844 9.520882 26.624484 0.789519 -0.342857 -6.685297 2.867700 -10.477700 -30.537800 4.276194 2.186501 -0.141455 16.652963 0.842853 -11.026374 -2.358552 -11.106492 30.227740 -0.077519 -3.184800 -12.267817 -1.484400 -7.697500 21.798900 -1.137608 -2.094574 5.886399 0.741761 -2.610313 -3.539592 3.500945 -1.645110 -4.348934 -11.285369 -8.307688 -4.941302 7.359867 -10.621909 8.761564 1.962100 -5.289600 5.365200 2.792243 5.067836 -0.826436 -96.520164 15.934164 14.280704 18.609180 -37.077042 -6.310521 -0.345343 0.713424 5.426541 0.385932 -10.868344 -0.159600 -7.125000 0.000000 0.000000 -18.279400 18.716700 12.075500 -1.863090 -5.453266 -0.699996 87.821957 -1.500822 11.898923 -4.175178 18.897817 -0.658662 -1.180755 -1.016478 15.389491 -7.957034 -36.181005 4.070700 7.125000 0.000000 0.000000 31.476400 -62.368600 -14.022500 
0.189353 17.805410 -22.613772 -0.067667 -0.818190 2.974625 -4.901706 -1.032807 1.376113 -14.231113 0.172042 -11.377476 0.811872 9.523164 26.622849 1.095219 -1.321956 -7.659777 1.622200 -8.030200 -22.805900 4.277919 2.188986 -0.143555 16.616323 0.826618 -11.057426 -2.364166 -11.110444 30.244026 -0.107787 -3.037426 -12.190446 -1.465200 -7.649800 21.655300 -1.097045 -2.112019 5.906532 0.755906 -2.629829 -3.570716 3.525887 -1.652503 -4.407681 -11.368037 -8.236396 -4.778929 7.342040 -10.538380 8.812794 1.984100 -5.254700 5.352800 2.801018 5.064943 -0.815243 -96.757738 15.984370 13.563433 18.465454 -36.929074 -6.272985 -0.348075 0.739569 5.028410 2.669880 -11.326197 -0.642900 -7.125000 0.000000 0.000000 -16.693500 18.201700 11.126200 -1.852561 -5.450290 -0.706754 87.795232 -1.478908 12.406090 -4.416657 19.334421 -0.730660 -1.153929 -1.035549 14.517095 -8.115999 -35.992178 4.149900 7.125000 0.000000 0.000000 31.098400 -62.254600 -13.752400 
0.194916 17.804096 -22.612659 -0.159690 -1.018500 2.977152 -4.887375 -1.024857 1.372715 -14.182018 0.204735 -11.360377 0.795027 9.518845 26.613699 0.720835 -0.062560 -6.766764 2.836800 -10.426100 -30.367900 4.270693 2.185385 -0.142750 16.702930 0.827615 -11.054366 -2.364037 -11.107840 30.238089 -0.102164 -3.043511 -12.113199 -1.448500 -7.608100 21.529900 -1.003536 -2.137979 5.940313 0.788320 -2.654674 -3.592510 3.543057 -1.664237 -4.457506 -11.400377 -8.138264 -4.603339 7.368608 -10.428874 8.821344 2.015600 -5.203700 5.321500 2.808955 5.061969 -0.804219 -96.940672 16.004873 12.962311 18.351869 -36.812711 -6.250322 -0.352166 0.760324 4.328347 4.732927 -11.677050 -1.107400 -7.125000 0.000000 0.000000 -15.268600 17.773300 10.250600 -1.841783 -5.450099 -0.714194 87.763906 -1.459513 13.163856 -4.638537 19.730176 -0.789670 -1.134985 -1.054108 13.512146 -8.499169 -35.934387 4.365200 7.125000 0.000000 0.000000 30.647800 -62.306800 -13.570100 
0.198051 17.804096 -22.610434 -0.233210 -1.202756 3.010951 -4.895281 -1.027305 1.382128 -14.103728 0.303651 -11.402917 0.806953 9.522773 26.620786 0.960168 -0.827716 -7.505039 1.996900 -8.859600 -25.357200 4.271431 2.185685 -0.148212 16.768263 0.874818 -11.064362 -2.362748 -11.103903 30.227884 -0.096322 -3.055381 -12.058035 -1.403400 -7.493800 21.186700 -0.948286 -2.168293 5.914030 0.805064 -2.690930 -3.581920 3.554553 -1.682904 -4.421467 -11.298759 -8.008594 -4.569303 7.351215 -10.270859 8.814126 2.010800 -5.124400 5.295500 2.815541 5.062412 -0.792716 -97.051135 15.873340 12.359324 18.198387 -36.651192 -6.206688 -0.356176 0.771285 3.557079 6.097259 -11.933427 -1.432500 -7.125000 0.000000 0.000000 -14.327400 17.454600 9.679000 -1.833894 -5.457620 -0.722766 87.753193 -1.432912 14.169363 -4.917592 20.226131 -0.863888 -1.107162 -1.085477 12.498037 -8.590807 -35.954816 4.425700 7.125000 0.000000 0.000000 30.553700 -62.342000 -13.549600 
0.201895 17.806725 -22.607703 -0.236504 -1.385268 3.090619 -4.900862 -1.033084 1.381817 -14.110946 0.387618 -11.488907 0.810023 9.525573 26.623649 1.028462 -1.021881 -7.808950 1.735200 -8.291200 -23.602000 4.273005 2.185437 -0.153338 16.738793 0.987384 -11.123295 -2.364513 -11.098943 30.225323 -0.113414 -2.973630 -12.024931 -1.395300 -7.472800 21.124000 -0.947631 -2.201153 5.852741 0.813833 -2.735486 -3.570067 3.581284 -1.705333 -4.359302 -11.160139 -7.875192 -4.717773 7.226988 -10.080480 8.905693 1.961300 -5.029600 5.324000 2.819989 5.066080 -0.784141 -97.147138 15.715125 11.790234 18.086361 -36.526728 -6.174562 -0.358848 0.776795 3.037605 6.799144 -12.096011 -1.608900 -7.125000 0.000000 0.000000 -13.842800 17.256100 9.393100 -1.826974 -5.464780 -0.731948 87.735259 -1.371034 15.193705 -5.224841 20.763134 -0.946713 -1.071215 -1.127194 11.411449 -8.429202 -36.030184 4.349400 7.125000 0.000000 0.000000 30.759300 -62.351900 -13.657400 
0.205840 17.807433 -22.606185 -0.182012 -1.561002 3.202285 -4.907442 -1.041051 1.375034 -14.184201 0.410326 -11.591741 0.806154 9.525158 26.617753 1.016177 -0.965945 -7.856317 1.696400 -8.202900 -23.332000 4.275373 2.185659 -0.157411 16.652459 1.132816 -11.208485 -2.368665 -11.094373 30.231311 -0.138226 -2.861469 -12.004966 -1.388600 -7.455600 21.072300 -1.016909 -2.219291 5.766206 0.829958 -2.764724 -3.570974 3.653663 -1.718668 -4.302977 -11.101141 -7.792612 -4.927753 7.106709 -9.940246 9.051869 1.917900 -4.960300 5.388900 2.822806 5.073701 -0.780811 -97.228471 15.637195 11.335612 18.051371 -36.479779 -6.166624 -0.358499 0.778691 2.780338 6.831176 -12.283160 -1.638900 -7.125000 0.000000 0.000000 -13.813100 17.068200 9.430300 -1.821739 -5.468431 -0.738390 87.690227 -1.235253 16.099654 -5.453351 21.156040 -1.008216 -1.047057 -1.150939 10.459466 -8.554276 -36.005090 4.422000 7.125000 0.000000 0.000000 30.591900 -62.360000 -13.581300 
0.208773 17.805309 -22.604870 -0.123460 -1.729179 3.260069 -4.911657 -1.046815 1.372901 -14.255721 0.491969 -11.670780 0.806312 9.525151 26.615484 1.030659 -1.017919 -7.876367 1.617700 -8.019700 -22.773800 4.275076 2.186434 -0.160676 16.579119 1.216909 -11.244978 -2.372003 -11.093760 30.240540 -0.143578 -2.827094 -11.958113 -1.325100 -7.290200 20.577900 -1.112742 -2.221021 5.726254 0.849369 -2.772845 -3.567578 3.741716 -1.720900 -4.269265 -11.099788 -7.753451 -5.067403 7.041236 -9.864466 9.135593 1.897400 -4.923900 5.431600 2.823654 5.078880 -0.780235 -97.261621 15.606450 10.999215 18.033218 -36.451043 -6.160123 -0.357896 0.776557 2.706122 6.386540 -12.309740 -1.539700 -7.125000 0.000000 0.000000 -14.114500 17.064600 9.650500 -1.816040 -5.470474 -0.741740 87.661194 -1.127525 16.811437 -5.648485 21.487592 -1.064859 -1.030378 -1.158532 9.839206 -8.806605 -35.865468 4.554400 7.125000 0.000000 0.000000 30.184700 -62.311500 -13.347800 
0.211606 17.804702 -22.602038 -0.171147 -1.885905 3.257633 -4.910478 -1.044998 1.376734 -14.216108 0.579991 -11.682881 0.810173 9.529651 26.627867 1.033030 -1.015577 -7.914927 1.608900 -7.999000 -22.711000 4.272130 2.185763 -0.164998 16.624806 1.263233 -11.220932 -2.371356 -11.094388 30.241511 -0.126754 -2.897519 -11.950499 -1.256200 -7.105400 20.028000 -1.068245 -2.215219 5.718085 0.877451 -2.759454 -3.542651 3.761590 -1.716386 -4.229875 -11.172699 -7.716348 -5.059476 7.060346 -9.808608 9.097370 1.919600 -4.899800 5.417600 2.822776 5.081845 -0.780133 -97.239463 15.602148 10.868917 18.055761 -36.467389 -6.171700 -0.359581 0.774268 2.690919 5.968250 -12.068827 -1.417800 -7.125000 0.000000 0.000000 -14.411500 17.319900 9.783700 -1.809568 -5.475079 -0.741870 87.675681 -1.033457 17.272620 -5.833272 21.807800 -1.127409 -1.008070 -1.164957 9.373982 -8.842444 -35.573387 4.548800 7.125000 0.000000 0.000000 29.828100 -62.077100 -13.009300 
0.214438 17.805410 -22.598801 -0.256891 -2.037503 3.268348 -4.909474 -1.041742 1.378962 -14.147369 0.607108 -11.677161 0.812123 9.537029 26.646965 1.003410 -0.885097 -7.981094 1.685300 -8.177200 -23.253600 4.271059 2.184519 -0.169187 16.705486 1.333352 -11.206801 -2.370223 -11.092322 30.236196 -0.132237 -2.887868 -12.012485 -1.238700 -7.057400 19.885600 -0.959207 -2.210918 5.682206 0.902026 -2.743778 -3.520508 3.733435 -1.712505 -4.184612 -11.309620 -7.672300 -4.929446 7.169058 -9.758125 9.003064 1.984800 -4.878300 5.371400 2.821052 5.087358 -0.781011 -97.158511 15.609737 10.815480 18.062430 -36.470050 -6.175378 -0.360133 0.770031 2.750331 5.537905 -11.914559 -1.305400 -7.125000 0.000000 0.000000 -14.712800 17.492500 9.944800 -1.805659 -5.481532 -0.740236 87.724695 -0.900194 17.586614 -5.975074 22.055130 -1.173807 -0.988952 -1.181159 8.994782 -8.694458 -35.479534 4.459700 7.125000 0.000000 0.000000 29.858500 -61.954400 -12.937100 
